<?xml version="1.0" standalone="no"?>
<!DOCTYPE svg PUBLIC "-//W3C//DTD SVG 20010904//EN"
 "http://www.w3.org/TR/2001/REC-SVG-20010904/DTD/svg10.dtd">
<svg version="1.0" xmlns="http://www.w3.org/2000/svg"
 width="300.000000pt" height="300.000000pt" viewBox="0 0 300.000000 300.000000"
 preserveAspectRatio="xMidYMid meet">
<metadata>
Created by potrace 1.11, written by Peter Selinger 2001-2013
</metadata>
<g transform="translate(0.000000,300.000000) scale(0.100000,-0.100000)"
fill="#000000" stroke="none">
<path d="M0 1500 l0 -1500 1500 0 1500 0 0 1500 0 1500 -1500 0 -1500 0 0
-1500z m607 378 l79 -162 33 130 c18 71 37 144 43 162 l10 32 74 0 c64 0 74
-2 73 -17 0 -10 -28 -126 -62 -258 l-62 -240 -79 -5 -78 -5 -83 164 -82 164
-39 -159 -40 -159 -77 -3 c-42 -2 -77 0 -77 4 0 5 77 310 121 477 l10 37 78 0
78 0 80 -162z m1288 149 c-2 -6 -9 -31 -15 -54 l-11 -42 -96 -3 -97 -3 -46
-180 c-26 -99 -50 -192 -54 -207 -6 -28 -7 -28 -86 -28 -65 0 -80 3 -80 15 0
12 74 309 96 388 4 14 -1 17 -30 17 -26 0 -36 -4 -36 -16 0 -34 -34 -86 -67
-102 -38 -18 -41 -28 -13 -37 31 -10 60 -54 60 -92 0 -62 -42 -117 -115 -150
-35 -16 -68 -18 -258 -17 -120 1 -220 4 -223 7 -4 4 99 424 122 499 5 16 40
17 479 18 373 0 473 -3 470 -13z m-673 -560 c102 -43 99 -175 -4 -218 l-30
-12 26 -14 c15 -8 31 -11 36 -8 5 3 50 66 100 140 l91 135 88 0 89 0 28 -145
c15 -80 31 -139 35 -133 3 7 21 73 39 146 l32 132 77 0 76 0 80 -160 c46 -92
82 -154 86 -147 4 6 24 78 44 160 l38 147 79 0 c60 0 79 -3 75 -12 -2 -7 -33
-127 -68 -265 l-64 -253 -77 0 -78 0 -81 163 -82 162 -41 -162 -40 -163 -107
0 c-117 0 -119 1 -119 73 l0 27 -115 0 -115 0 -31 -50 -31 -50 -289 0 c-185 0
-289 4 -289 10 0 14 39 152 44 157 2 3 57 -32 122 -76 64 -45 119 -79 121 -77
2 2 -5 19 -16 37 -12 19 -21 37 -21 42 0 4 24 7 54 7 94 0 146 32 131 81 -9
29 -45 39 -136 39 -73 0 -80 -2 -88 -22 -7 -18 -15 -7 -57 75 l-49 96 85 81
85 81 115 -4 c76 -2 128 -9 152 -20z m1274 6 c-23 -76 -47 -175 -43 -179 2 -2
61 41 130 96 l126 101 108 -3 108 -3 -130 -94 c-71 -51 -134 -97 -139 -101 -4
-5 35 -78 88 -163 53 -85 96 -157 96 -161 0 -3 -40 -6 -88 -6 l-88 0 -63 110
c-35 61 -67 113 -72 115 -4 3 -35 -14 -68 -37 -58 -42 -60 -45 -77 -115 l-18
-73 -83 0 c-46 0 -83 3 -83 6 0 5 70 287 121 487 l10 37 85 0 c77 0 85 -2 80
-17z"/>
<path d="M1081 1903 c-19 -68 -17 -73 37 -73 129 2 196 45 146 94 -11 12 -36
16 -94 16 l-79 0 -10 -37z"/>
<path d="M1035 1718 c-6 -19 -25 -92 -25 -98 0 -12 208 6 223 18 26 22 31 51
11 73 -15 16 -31 19 -111 19 -66 0 -95 -4 -98 -12z"/>
<path d="M938 1338 l-15 -53 72 -3 c84 -3 121 8 137 43 19 42 -8 59 -101 63
l-78 4 -15 -54z"/>
<path d="M1441 1256 c-28 -46 -51 -87 -51 -90 0 -3 32 -6 71 -6 l72 0 -6 28
c-3 15 -9 55 -13 90 -3 34 -10 62 -15 62 -4 0 -30 -38 -58 -84z"/>
</g>
</svg>
